<mxfile host="app.diagrams.net" agent="Mozilla/5.0 (Windows NT 10.0; Win64; x64) AppleWebKit/537.36 (KHTML, like Gecko) Chrome/140.0.0.0 Safari/537.36" version="28.2.5">
  <diagram name="Сторінка-1" id="UuBBdwFpwEdNUA8Ds_G6">
    <mxGraphModel dx="2280" dy="732" grid="1" gridSize="10" guides="1" tooltips="1" connect="1" arrows="1" fold="1" page="1" pageScale="1" pageWidth="827" pageHeight="1169" math="0" shadow="0">
      <root>
        <mxCell id="0" />
        <mxCell id="1" parent="0" />
        <mxCell id="KYygjc3yaxbLga-CvLra-13" value="abstract Cadr" style="swimlane;fontStyle=0;childLayout=stackLayout;horizontal=1;startSize=26;fillColor=none;horizontalStack=0;resizeParent=1;resizeParentMax=0;resizeLast=0;collapsible=1;marginBottom=0;whiteSpace=wrap;html=1;" parent="1" vertex="1">
          <mxGeometry x="190" y="60" width="140" height="646" as="geometry" />
        </mxCell>
        <mxCell id="KYygjc3yaxbLga-CvLra-14" value="#name" style="text;strokeColor=none;fillColor=none;align=left;verticalAlign=top;spacingLeft=4;spacingRight=4;overflow=hidden;rotatable=0;points=[[0,0.5],[1,0.5]];portConstraint=eastwest;whiteSpace=wrap;html=1;" parent="KYygjc3yaxbLga-CvLra-13" vertex="1">
          <mxGeometry y="26" width="140" height="26" as="geometry" />
        </mxCell>
        <mxCell id="KYygjc3yaxbLga-CvLra-16" value="#Enteryear" style="text;strokeColor=none;fillColor=none;align=left;verticalAlign=top;spacingLeft=4;spacingRight=4;overflow=hidden;rotatable=0;points=[[0,0.5],[1,0.5]];portConstraint=eastwest;whiteSpace=wrap;html=1;" parent="KYygjc3yaxbLga-CvLra-13" vertex="1">
          <mxGeometry y="52" width="140" height="26" as="geometry" />
        </mxCell>
        <mxCell id="KYygjc3yaxbLga-CvLra-44" value="#Educatio" style="text;strokeColor=none;fillColor=none;align=left;verticalAlign=top;spacingLeft=4;spacingRight=4;overflow=hidden;rotatable=0;points=[[0,0.5],[1,0.5]];portConstraint=eastwest;whiteSpace=wrap;html=1;" parent="KYygjc3yaxbLga-CvLra-13" vertex="1">
          <mxGeometry y="78" width="140" height="26" as="geometry" />
        </mxCell>
        <mxCell id="KYygjc3yaxbLga-CvLra-17" value="+ Shapka()" style="text;strokeColor=none;fillColor=none;align=left;verticalAlign=top;spacingLeft=4;spacingRight=4;overflow=hidden;rotatable=0;points=[[0,0.5],[1,0.5]];portConstraint=eastwest;whiteSpace=wrap;html=1;" parent="KYygjc3yaxbLga-CvLra-13" vertex="1">
          <mxGeometry y="104" width="140" height="26" as="geometry" />
        </mxCell>
        <mxCell id="KYygjc3yaxbLga-CvLra-18" value="+ Print()*" style="text;strokeColor=none;fillColor=none;align=left;verticalAlign=top;spacingLeft=4;spacingRight=4;overflow=hidden;rotatable=0;points=[[0,0.5],[1,0.5]];portConstraint=eastwest;whiteSpace=wrap;html=1;" parent="KYygjc3yaxbLga-CvLra-13" vertex="1">
          <mxGeometry y="130" width="140" height="26" as="geometry" />
        </mxCell>
        <mxCell id="KYygjc3yaxbLga-CvLra-19" value="+ GetSalary()* = 0" style="text;strokeColor=none;fillColor=none;align=left;verticalAlign=top;spacingLeft=4;spacingRight=4;overflow=hidden;rotatable=0;points=[[0,0.5],[1,0.5]];portConstraint=eastwest;whiteSpace=wrap;html=1;" parent="KYygjc3yaxbLga-CvLra-13" vertex="1">
          <mxGeometry y="156" width="140" height="26" as="geometry" />
        </mxCell>
        <mxCell id="_qbtR4W9iCl-oeb5Ib_U-1" value="+ Work()* = 0" style="text;strokeColor=none;fillColor=none;align=left;verticalAlign=top;spacingLeft=4;spacingRight=4;overflow=hidden;rotatable=0;points=[[0,0.5],[1,0.5]];portConstraint=eastwest;whiteSpace=wrap;html=1;" parent="KYygjc3yaxbLga-CvLra-13" vertex="1">
          <mxGeometry y="182" width="140" height="26" as="geometry" />
        </mxCell>
        <mxCell id="KYygjc3yaxbLga-CvLra-20" value="+ Init()*" style="text;strokeColor=none;fillColor=none;align=left;verticalAlign=top;spacingLeft=4;spacingRight=4;overflow=hidden;rotatable=0;points=[[0,0.5],[1,0.5]];portConstraint=eastwest;whiteSpace=wrap;html=1;" parent="KYygjc3yaxbLga-CvLra-13" vertex="1">
          <mxGeometry y="208" width="140" height="26" as="geometry" />
        </mxCell>
        <mxCell id="KYygjc3yaxbLga-CvLra-21" value="# NormalNum( num)*" style="text;strokeColor=none;fillColor=none;align=left;verticalAlign=top;spacingLeft=4;spacingRight=4;overflow=hidden;rotatable=0;points=[[0,0.5],[1,0.5]];portConstraint=eastwest;whiteSpace=wrap;html=1;" parent="KYygjc3yaxbLga-CvLra-13" vertex="1">
          <mxGeometry y="234" width="140" height="36" as="geometry" />
        </mxCell>
        <mxCell id="ZKbEycsPSZGJLrnQ0Gip-1" value="+ Cadr(name, eneterdYear,&amp;nbsp; eduction)" style="text;strokeColor=none;fillColor=none;align=left;verticalAlign=top;spacingLeft=4;spacingRight=4;overflow=hidden;rotatable=0;points=[[0,0.5],[1,0.5]];portConstraint=eastwest;whiteSpace=wrap;html=1;" vertex="1" parent="KYygjc3yaxbLga-CvLra-13">
          <mxGeometry y="270" width="140" height="50" as="geometry" />
        </mxCell>
        <mxCell id="ZKbEycsPSZGJLrnQ0Gip-2" value="+ Cadr()" style="text;strokeColor=none;fillColor=none;align=left;verticalAlign=top;spacingLeft=4;spacingRight=4;overflow=hidden;rotatable=0;points=[[0,0.5],[1,0.5]];portConstraint=eastwest;whiteSpace=wrap;html=1;" vertex="1" parent="KYygjc3yaxbLga-CvLra-13">
          <mxGeometry y="320" width="140" height="26" as="geometry" />
        </mxCell>
        <mxCell id="ZKbEycsPSZGJLrnQ0Gip-3" value="+ Add()" style="text;strokeColor=none;fillColor=none;align=left;verticalAlign=top;spacingLeft=4;spacingRight=4;overflow=hidden;rotatable=0;points=[[0,0.5],[1,0.5]];portConstraint=eastwest;whiteSpace=wrap;html=1;" vertex="1" parent="KYygjc3yaxbLga-CvLra-13">
          <mxGeometry y="346" width="140" height="26" as="geometry" />
        </mxCell>
        <mxCell id="ZKbEycsPSZGJLrnQ0Gip-4" value="+ SetName()" style="text;strokeColor=none;fillColor=none;align=left;verticalAlign=top;spacingLeft=4;spacingRight=4;overflow=hidden;rotatable=0;points=[[0,0.5],[1,0.5]];portConstraint=eastwest;whiteSpace=wrap;html=1;" vertex="1" parent="KYygjc3yaxbLga-CvLra-13">
          <mxGeometry y="372" width="140" height="26" as="geometry" />
        </mxCell>
        <mxCell id="ZKbEycsPSZGJLrnQ0Gip-5" value="+ SetEnteredYear()" style="text;strokeColor=none;fillColor=none;align=left;verticalAlign=top;spacingLeft=4;spacingRight=4;overflow=hidden;rotatable=0;points=[[0,0.5],[1,0.5]];portConstraint=eastwest;whiteSpace=wrap;html=1;" vertex="1" parent="KYygjc3yaxbLga-CvLra-13">
          <mxGeometry y="398" width="140" height="26" as="geometry" />
        </mxCell>
        <mxCell id="ZKbEycsPSZGJLrnQ0Gip-6" value="+ SetEducatiob()" style="text;strokeColor=none;fillColor=none;align=left;verticalAlign=top;spacingLeft=4;spacingRight=4;overflow=hidden;rotatable=0;points=[[0,0.5],[1,0.5]];portConstraint=eastwest;whiteSpace=wrap;html=1;" vertex="1" parent="KYygjc3yaxbLga-CvLra-13">
          <mxGeometry y="424" width="140" height="26" as="geometry" />
        </mxCell>
        <mxCell id="ZKbEycsPSZGJLrnQ0Gip-15" value="+ GetName()" style="text;strokeColor=none;fillColor=none;align=left;verticalAlign=top;spacingLeft=4;spacingRight=4;overflow=hidden;rotatable=0;points=[[0,0.5],[1,0.5]];portConstraint=eastwest;whiteSpace=wrap;html=1;" vertex="1" parent="KYygjc3yaxbLga-CvLra-13">
          <mxGeometry y="450" width="140" height="26" as="geometry" />
        </mxCell>
        <mxCell id="ZKbEycsPSZGJLrnQ0Gip-17" value="+ GetEducatiob()" style="text;strokeColor=none;fillColor=none;align=left;verticalAlign=top;spacingLeft=4;spacingRight=4;overflow=hidden;rotatable=0;points=[[0,0.5],[1,0.5]];portConstraint=eastwest;whiteSpace=wrap;html=1;" vertex="1" parent="KYygjc3yaxbLga-CvLra-13">
          <mxGeometry y="476" width="140" height="26" as="geometry" />
        </mxCell>
        <mxCell id="ZKbEycsPSZGJLrnQ0Gip-16" value="+ GetEnteredYear()" style="text;strokeColor=none;fillColor=none;align=left;verticalAlign=top;spacingLeft=4;spacingRight=4;overflow=hidden;rotatable=0;points=[[0,0.5],[1,0.5]];portConstraint=eastwest;whiteSpace=wrap;html=1;" vertex="1" parent="KYygjc3yaxbLga-CvLra-13">
          <mxGeometry y="502" width="140" height="26" as="geometry" />
        </mxCell>
        <mxCell id="ZKbEycsPSZGJLrnQ0Gip-7" value="+CompreName(name)" style="text;strokeColor=none;fillColor=none;align=left;verticalAlign=top;spacingLeft=4;spacingRight=4;overflow=hidden;rotatable=0;points=[[0,0.5],[1,0.5]];portConstraint=eastwest;whiteSpace=wrap;html=1;" vertex="1" parent="KYygjc3yaxbLga-CvLra-13">
          <mxGeometry y="528" width="140" height="40" as="geometry" />
        </mxCell>
        <mxCell id="ZKbEycsPSZGJLrnQ0Gip-9" value="+ Operator++()* = 0" style="text;strokeColor=none;fillColor=none;align=left;verticalAlign=top;spacingLeft=4;spacingRight=4;overflow=hidden;rotatable=0;points=[[0,0.5],[1,0.5]];portConstraint=eastwest;whiteSpace=wrap;html=1;" vertex="1" parent="KYygjc3yaxbLga-CvLra-13">
          <mxGeometry y="568" width="140" height="26" as="geometry" />
        </mxCell>
        <mxCell id="ZKbEycsPSZGJLrnQ0Gip-10" value="+ Operator--()* = 0" style="text;strokeColor=none;fillColor=none;align=left;verticalAlign=top;spacingLeft=4;spacingRight=4;overflow=hidden;rotatable=0;points=[[0,0.5],[1,0.5]];portConstraint=eastwest;whiteSpace=wrap;html=1;" vertex="1" parent="KYygjc3yaxbLga-CvLra-13">
          <mxGeometry y="594" width="140" height="26" as="geometry" />
        </mxCell>
        <mxCell id="ZKbEycsPSZGJLrnQ0Gip-11" value="+ PrintLine()" style="text;strokeColor=none;fillColor=none;align=left;verticalAlign=top;spacingLeft=4;spacingRight=4;overflow=hidden;rotatable=0;points=[[0,0.5],[1,0.5]];portConstraint=eastwest;whiteSpace=wrap;html=1;" vertex="1" parent="KYygjc3yaxbLga-CvLra-13">
          <mxGeometry y="620" width="140" height="26" as="geometry" />
        </mxCell>
        <mxCell id="KYygjc3yaxbLga-CvLra-22" value="Administration" style="swimlane;fontStyle=0;childLayout=stackLayout;horizontal=1;startSize=26;fillColor=none;horizontalStack=0;resizeParent=1;resizeParentMax=0;resizeLast=0;collapsible=1;marginBottom=0;whiteSpace=wrap;html=1;" parent="1" vertex="1">
          <mxGeometry x="590" y="400" width="140" height="430" as="geometry" />
        </mxCell>
        <mxCell id="KYygjc3yaxbLga-CvLra-23" value="-position" style="text;strokeColor=none;fillColor=none;align=left;verticalAlign=top;spacingLeft=4;spacingRight=4;overflow=hidden;rotatable=0;points=[[0,0.5],[1,0.5]];portConstraint=eastwest;whiteSpace=wrap;html=1;" parent="KYygjc3yaxbLga-CvLra-22" vertex="1">
          <mxGeometry y="26" width="140" height="26" as="geometry" />
        </mxCell>
        <mxCell id="KYygjc3yaxbLga-CvLra-24" value="-peopleCount" style="text;strokeColor=none;fillColor=none;align=left;verticalAlign=top;spacingLeft=4;spacingRight=4;overflow=hidden;rotatable=0;points=[[0,0.5],[1,0.5]];portConstraint=eastwest;whiteSpace=wrap;html=1;" parent="KYygjc3yaxbLga-CvLra-22" vertex="1">
          <mxGeometry y="52" width="140" height="26" as="geometry" />
        </mxCell>
        <mxCell id="ZKbEycsPSZGJLrnQ0Gip-43" value="+&amp;nbsp;&lt;span style=&quot;text-align: center;&quot;&gt;Administration&lt;/span&gt;()" style="text;strokeColor=none;fillColor=none;align=left;verticalAlign=top;spacingLeft=4;spacingRight=4;overflow=hidden;rotatable=0;points=[[0,0.5],[1,0.5]];portConstraint=eastwest;whiteSpace=wrap;html=1;" vertex="1" parent="KYygjc3yaxbLga-CvLra-22">
          <mxGeometry y="78" width="140" height="26" as="geometry" />
        </mxCell>
        <mxCell id="ZKbEycsPSZGJLrnQ0Gip-44" value="+&amp;nbsp;&lt;span style=&quot;text-align: center;&quot;&gt;Administration&lt;/span&gt;(name, eneterdYear, eduction,peopleCount,&lt;br&gt;&lt;div&gt;&lt;span style=&quot;background-color: transparent; color: light-dark(rgb(0, 0, 0), rgb(255, 255, 255));&quot;&gt;position&lt;/span&gt;)&lt;/div&gt;" style="text;strokeColor=none;fillColor=none;align=left;verticalAlign=top;spacingLeft=4;spacingRight=4;overflow=hidden;rotatable=0;points=[[0,0.5],[1,0.5]];portConstraint=eastwest;whiteSpace=wrap;html=1;" vertex="1" parent="KYygjc3yaxbLga-CvLra-22">
          <mxGeometry y="104" width="140" height="66" as="geometry" />
        </mxCell>
        <mxCell id="KYygjc3yaxbLga-CvLra-50" value="+ Init()" style="text;strokeColor=none;fillColor=none;align=left;verticalAlign=top;spacingLeft=4;spacingRight=4;overflow=hidden;rotatable=0;points=[[0,0.5],[1,0.5]];portConstraint=eastwest;whiteSpace=wrap;html=1;" parent="KYygjc3yaxbLga-CvLra-22" vertex="1">
          <mxGeometry y="170" width="140" height="26" as="geometry" />
        </mxCell>
        <mxCell id="KYygjc3yaxbLga-CvLra-52" value="+ Print()" style="text;strokeColor=none;fillColor=none;align=left;verticalAlign=top;spacingLeft=4;spacingRight=4;overflow=hidden;rotatable=0;points=[[0,0.5],[1,0.5]];portConstraint=eastwest;whiteSpace=wrap;html=1;" parent="KYygjc3yaxbLga-CvLra-22" vertex="1">
          <mxGeometry y="196" width="140" height="26" as="geometry" />
        </mxCell>
        <mxCell id="KYygjc3yaxbLga-CvLra-51" value="+ GetSalary()" style="text;strokeColor=none;fillColor=none;align=left;verticalAlign=top;spacingLeft=4;spacingRight=4;overflow=hidden;rotatable=0;points=[[0,0.5],[1,0.5]];portConstraint=eastwest;whiteSpace=wrap;html=1;" parent="KYygjc3yaxbLga-CvLra-22" vertex="1">
          <mxGeometry y="222" width="140" height="26" as="geometry" />
        </mxCell>
        <mxCell id="_qbtR4W9iCl-oeb5Ib_U-4" value="+ Work()" style="text;strokeColor=none;fillColor=none;align=left;verticalAlign=top;spacingLeft=4;spacingRight=4;overflow=hidden;rotatable=0;points=[[0,0.5],[1,0.5]];portConstraint=eastwest;whiteSpace=wrap;html=1;" parent="KYygjc3yaxbLga-CvLra-22" vertex="1">
          <mxGeometry y="248" width="140" height="26" as="geometry" />
        </mxCell>
        <mxCell id="ZKbEycsPSZGJLrnQ0Gip-35" value="+ GetPeopleCount()" style="text;strokeColor=none;fillColor=none;align=left;verticalAlign=top;spacingLeft=4;spacingRight=4;overflow=hidden;rotatable=0;points=[[0,0.5],[1,0.5]];portConstraint=eastwest;whiteSpace=wrap;html=1;" vertex="1" parent="KYygjc3yaxbLga-CvLra-22">
          <mxGeometry y="274" width="140" height="26" as="geometry" />
        </mxCell>
        <mxCell id="ZKbEycsPSZGJLrnQ0Gip-34" value="+ GetPosition()" style="text;strokeColor=none;fillColor=none;align=left;verticalAlign=top;spacingLeft=4;spacingRight=4;overflow=hidden;rotatable=0;points=[[0,0.5],[1,0.5]];portConstraint=eastwest;whiteSpace=wrap;html=1;" vertex="1" parent="KYygjc3yaxbLga-CvLra-22">
          <mxGeometry y="300" width="140" height="26" as="geometry" />
        </mxCell>
        <mxCell id="ZKbEycsPSZGJLrnQ0Gip-33" value="+ SetPosition()" style="text;strokeColor=none;fillColor=none;align=left;verticalAlign=top;spacingLeft=4;spacingRight=4;overflow=hidden;rotatable=0;points=[[0,0.5],[1,0.5]];portConstraint=eastwest;whiteSpace=wrap;html=1;" vertex="1" parent="KYygjc3yaxbLga-CvLra-22">
          <mxGeometry y="326" width="140" height="26" as="geometry" />
        </mxCell>
        <mxCell id="ZKbEycsPSZGJLrnQ0Gip-32" value="+ SetPeopleCount()" style="text;strokeColor=none;fillColor=none;align=left;verticalAlign=top;spacingLeft=4;spacingRight=4;overflow=hidden;rotatable=0;points=[[0,0.5],[1,0.5]];portConstraint=eastwest;whiteSpace=wrap;html=1;" vertex="1" parent="KYygjc3yaxbLga-CvLra-22">
          <mxGeometry y="352" width="140" height="26" as="geometry" />
        </mxCell>
        <mxCell id="ZKbEycsPSZGJLrnQ0Gip-31" value="+ Operator++()" style="text;strokeColor=none;fillColor=none;align=left;verticalAlign=top;spacingLeft=4;spacingRight=4;overflow=hidden;rotatable=0;points=[[0,0.5],[1,0.5]];portConstraint=eastwest;whiteSpace=wrap;html=1;" vertex="1" parent="KYygjc3yaxbLga-CvLra-22">
          <mxGeometry y="378" width="140" height="26" as="geometry" />
        </mxCell>
        <mxCell id="ZKbEycsPSZGJLrnQ0Gip-30" value="+ Operator--()" style="text;strokeColor=none;fillColor=none;align=left;verticalAlign=top;spacingLeft=4;spacingRight=4;overflow=hidden;rotatable=0;points=[[0,0.5],[1,0.5]];portConstraint=eastwest;whiteSpace=wrap;html=1;" vertex="1" parent="KYygjc3yaxbLga-CvLra-22">
          <mxGeometry y="404" width="140" height="26" as="geometry" />
        </mxCell>
        <mxCell id="KYygjc3yaxbLga-CvLra-28" value="Engineer" style="swimlane;fontStyle=0;childLayout=stackLayout;horizontal=1;startSize=26;fillColor=none;horizontalStack=0;resizeParent=1;resizeParentMax=0;resizeLast=0;collapsible=1;marginBottom=0;whiteSpace=wrap;html=1;" parent="1" vertex="1">
          <mxGeometry x="414" y="500" width="140" height="430" as="geometry" />
        </mxCell>
        <mxCell id="KYygjc3yaxbLga-CvLra-29" value="-specialization" style="text;strokeColor=none;fillColor=none;align=left;verticalAlign=top;spacingLeft=4;spacingRight=4;overflow=hidden;rotatable=0;points=[[0,0.5],[1,0.5]];portConstraint=eastwest;whiteSpace=wrap;html=1;" parent="KYygjc3yaxbLga-CvLra-28" vertex="1">
          <mxGeometry y="26" width="140" height="26" as="geometry" />
        </mxCell>
        <mxCell id="KYygjc3yaxbLga-CvLra-30" value="-projectCount" style="text;strokeColor=none;fillColor=none;align=left;verticalAlign=top;spacingLeft=4;spacingRight=4;overflow=hidden;rotatable=0;points=[[0,0.5],[1,0.5]];portConstraint=eastwest;whiteSpace=wrap;html=1;" parent="KYygjc3yaxbLga-CvLra-28" vertex="1">
          <mxGeometry y="52" width="140" height="26" as="geometry" />
        </mxCell>
        <mxCell id="ZKbEycsPSZGJLrnQ0Gip-41" value="+ Engineer()" style="text;strokeColor=none;fillColor=none;align=left;verticalAlign=top;spacingLeft=4;spacingRight=4;overflow=hidden;rotatable=0;points=[[0,0.5],[1,0.5]];portConstraint=eastwest;whiteSpace=wrap;html=1;" vertex="1" parent="KYygjc3yaxbLga-CvLra-28">
          <mxGeometry y="78" width="140" height="26" as="geometry" />
        </mxCell>
        <mxCell id="ZKbEycsPSZGJLrnQ0Gip-40" value="+ Engineer(name, eneterdYear, eduction,specialization,&lt;div&gt;projectCount)&lt;/div&gt;" style="text;strokeColor=none;fillColor=none;align=left;verticalAlign=top;spacingLeft=4;spacingRight=4;overflow=hidden;rotatable=0;points=[[0,0.5],[1,0.5]];portConstraint=eastwest;whiteSpace=wrap;html=1;" vertex="1" parent="KYygjc3yaxbLga-CvLra-28">
          <mxGeometry y="104" width="140" height="66" as="geometry" />
        </mxCell>
        <mxCell id="KYygjc3yaxbLga-CvLra-48" value="+ Init()" style="text;strokeColor=none;fillColor=none;align=left;verticalAlign=top;spacingLeft=4;spacingRight=4;overflow=hidden;rotatable=0;points=[[0,0.5],[1,0.5]];portConstraint=eastwest;whiteSpace=wrap;html=1;" parent="KYygjc3yaxbLga-CvLra-28" vertex="1">
          <mxGeometry y="170" width="140" height="26" as="geometry" />
        </mxCell>
        <mxCell id="KYygjc3yaxbLga-CvLra-47" value="+ GetSalary()" style="text;strokeColor=none;fillColor=none;align=left;verticalAlign=top;spacingLeft=4;spacingRight=4;overflow=hidden;rotatable=0;points=[[0,0.5],[1,0.5]];portConstraint=eastwest;whiteSpace=wrap;html=1;" parent="KYygjc3yaxbLga-CvLra-28" vertex="1">
          <mxGeometry y="196" width="140" height="26" as="geometry" />
        </mxCell>
        <mxCell id="KYygjc3yaxbLga-CvLra-46" value="+ Print()" style="text;strokeColor=none;fillColor=none;align=left;verticalAlign=top;spacingLeft=4;spacingRight=4;overflow=hidden;rotatable=0;points=[[0,0.5],[1,0.5]];portConstraint=eastwest;whiteSpace=wrap;html=1;" parent="KYygjc3yaxbLga-CvLra-28" vertex="1">
          <mxGeometry y="222" width="140" height="26" as="geometry" />
        </mxCell>
        <mxCell id="_qbtR4W9iCl-oeb5Ib_U-3" value="+ Work()&lt;span style=&quot;color: rgba(0, 0, 0, 0); font-family: monospace; font-size: 0px; text-wrap-mode: nowrap;&quot;&gt;%3CmxGraphModel%3E%3Croot%3E%3CmxCell%20id%3D%220%22%2F%3E%3CmxCell%20id%3D%221%22%20parent%3D%220%22%2F%3E%3CmxCell%20id%3D%222%22%20value%3D%22%2B%20Work()*%20%3D%200%22%20style%3D%22text%3BstrokeColor%3Dnone%3BfillColor%3Dnone%3Balign%3Dleft%3BverticalAlign%3Dtop%3BspacingLeft%3D4%3BspacingRight%3D4%3Boverflow%3Dhidden%3Brotatable%3D0%3Bpoints%3D%5B%5B0%2C0.5%5D%2C%5B1%2C0.5%5D%5D%3BportConstraint%3Deastwest%3BwhiteSpace%3Dwrap%3Bhtml%3D1%3B%22%20vertex%3D%221%22%20parent%3D%221%22%3E%3CmxGeometry%20x%3D%22367%22%20y%3D%22292%22%20width%3D%22140%22%20height%3D%2226%22%20as%3D%22geometry%22%2F%3E%3C%2FmxCell%3E%3C%2Froot%3E%3C%2FmxGraphModel%&lt;/span&gt;" style="text;strokeColor=none;fillColor=none;align=left;verticalAlign=top;spacingLeft=4;spacingRight=4;overflow=hidden;rotatable=0;points=[[0,0.5],[1,0.5]];portConstraint=eastwest;whiteSpace=wrap;html=1;" parent="KYygjc3yaxbLga-CvLra-28" vertex="1">
          <mxGeometry y="248" width="140" height="26" as="geometry" />
        </mxCell>
        <mxCell id="ZKbEycsPSZGJLrnQ0Gip-24" value="+ Operator--()" style="text;strokeColor=none;fillColor=none;align=left;verticalAlign=top;spacingLeft=4;spacingRight=4;overflow=hidden;rotatable=0;points=[[0,0.5],[1,0.5]];portConstraint=eastwest;whiteSpace=wrap;html=1;" vertex="1" parent="KYygjc3yaxbLga-CvLra-28">
          <mxGeometry y="274" width="140" height="26" as="geometry" />
        </mxCell>
        <mxCell id="ZKbEycsPSZGJLrnQ0Gip-29" value="+ GetCountProject()" style="text;strokeColor=none;fillColor=none;align=left;verticalAlign=top;spacingLeft=4;spacingRight=4;overflow=hidden;rotatable=0;points=[[0,0.5],[1,0.5]];portConstraint=eastwest;whiteSpace=wrap;html=1;" vertex="1" parent="KYygjc3yaxbLga-CvLra-28">
          <mxGeometry y="300" width="140" height="26" as="geometry" />
        </mxCell>
        <mxCell id="ZKbEycsPSZGJLrnQ0Gip-28" value="+ GetSpecialization()" style="text;strokeColor=none;fillColor=none;align=left;verticalAlign=top;spacingLeft=4;spacingRight=4;overflow=hidden;rotatable=0;points=[[0,0.5],[1,0.5]];portConstraint=eastwest;whiteSpace=wrap;html=1;" vertex="1" parent="KYygjc3yaxbLga-CvLra-28">
          <mxGeometry y="326" width="140" height="26" as="geometry" />
        </mxCell>
        <mxCell id="ZKbEycsPSZGJLrnQ0Gip-27" value="+ SetSpecialization()" style="text;strokeColor=none;fillColor=none;align=left;verticalAlign=top;spacingLeft=4;spacingRight=4;overflow=hidden;rotatable=0;points=[[0,0.5],[1,0.5]];portConstraint=eastwest;whiteSpace=wrap;html=1;" vertex="1" parent="KYygjc3yaxbLga-CvLra-28">
          <mxGeometry y="352" width="140" height="26" as="geometry" />
        </mxCell>
        <mxCell id="ZKbEycsPSZGJLrnQ0Gip-26" value="+ SetCountProject()" style="text;strokeColor=none;fillColor=none;align=left;verticalAlign=top;spacingLeft=4;spacingRight=4;overflow=hidden;rotatable=0;points=[[0,0.5],[1,0.5]];portConstraint=eastwest;whiteSpace=wrap;html=1;" vertex="1" parent="KYygjc3yaxbLga-CvLra-28">
          <mxGeometry y="378" width="140" height="26" as="geometry" />
        </mxCell>
        <mxCell id="ZKbEycsPSZGJLrnQ0Gip-25" value="+ Operator++()" style="text;strokeColor=none;fillColor=none;align=left;verticalAlign=top;spacingLeft=4;spacingRight=4;overflow=hidden;rotatable=0;points=[[0,0.5],[1,0.5]];portConstraint=eastwest;whiteSpace=wrap;html=1;" vertex="1" parent="KYygjc3yaxbLga-CvLra-28">
          <mxGeometry y="404" width="140" height="26" as="geometry" />
        </mxCell>
        <mxCell id="KYygjc3yaxbLga-CvLra-35" value="Worker" style="swimlane;fontStyle=0;childLayout=stackLayout;horizontal=1;startSize=26;fillColor=none;horizontalStack=0;resizeParent=1;resizeParentMax=0;resizeLast=0;collapsible=1;marginBottom=0;whiteSpace=wrap;html=1;" parent="1" vertex="1">
          <mxGeometry x="-60" y="510" width="140" height="456" as="geometry" />
        </mxCell>
        <mxCell id="KYygjc3yaxbLga-CvLra-36" value="-productCount" style="text;strokeColor=none;fillColor=none;align=left;verticalAlign=top;spacingLeft=4;spacingRight=4;overflow=hidden;rotatable=0;points=[[0,0.5],[1,0.5]];portConstraint=eastwest;whiteSpace=wrap;html=1;" parent="KYygjc3yaxbLga-CvLra-35" vertex="1">
          <mxGeometry y="26" width="140" height="26" as="geometry" />
        </mxCell>
        <mxCell id="KYygjc3yaxbLga-CvLra-37" value="-discharge" style="text;strokeColor=none;fillColor=none;align=left;verticalAlign=top;spacingLeft=4;spacingRight=4;overflow=hidden;rotatable=0;points=[[0,0.5],[1,0.5]];portConstraint=eastwest;whiteSpace=wrap;html=1;" parent="KYygjc3yaxbLga-CvLra-35" vertex="1">
          <mxGeometry y="52" width="140" height="26" as="geometry" />
        </mxCell>
        <mxCell id="ZKbEycsPSZGJLrnQ0Gip-37" value="+ Worker()" style="text;strokeColor=none;fillColor=none;align=left;verticalAlign=top;spacingLeft=4;spacingRight=4;overflow=hidden;rotatable=0;points=[[0,0.5],[1,0.5]];portConstraint=eastwest;whiteSpace=wrap;html=1;" vertex="1" parent="KYygjc3yaxbLga-CvLra-35">
          <mxGeometry y="78" width="140" height="26" as="geometry" />
        </mxCell>
        <mxCell id="ZKbEycsPSZGJLrnQ0Gip-36" value="+ Worker(name, eneterdYear, string eduction, productCount,dischrge)" style="text;strokeColor=none;fillColor=none;align=left;verticalAlign=top;spacingLeft=4;spacingRight=4;overflow=hidden;rotatable=0;points=[[0,0.5],[1,0.5]];portConstraint=eastwest;whiteSpace=wrap;html=1;" vertex="1" parent="KYygjc3yaxbLga-CvLra-35">
          <mxGeometry y="104" width="140" height="66" as="geometry" />
        </mxCell>
        <mxCell id="KYygjc3yaxbLga-CvLra-38" value="+ Print()" style="text;strokeColor=none;fillColor=none;align=left;verticalAlign=top;spacingLeft=4;spacingRight=4;overflow=hidden;rotatable=0;points=[[0,0.5],[1,0.5]];portConstraint=eastwest;whiteSpace=wrap;html=1;" parent="KYygjc3yaxbLga-CvLra-35" vertex="1">
          <mxGeometry y="170" width="140" height="26" as="geometry" />
        </mxCell>
        <mxCell id="KYygjc3yaxbLga-CvLra-39" value="+ GetSalary()" style="text;strokeColor=none;fillColor=none;align=left;verticalAlign=top;spacingLeft=4;spacingRight=4;overflow=hidden;rotatable=0;points=[[0,0.5],[1,0.5]];portConstraint=eastwest;whiteSpace=wrap;html=1;" parent="KYygjc3yaxbLga-CvLra-35" vertex="1">
          <mxGeometry y="196" width="140" height="26" as="geometry" />
        </mxCell>
        <mxCell id="KYygjc3yaxbLga-CvLra-40" value="+ Init()" style="text;strokeColor=none;fillColor=none;align=left;verticalAlign=top;spacingLeft=4;spacingRight=4;overflow=hidden;rotatable=0;points=[[0,0.5],[1,0.5]];portConstraint=eastwest;whiteSpace=wrap;html=1;" parent="KYygjc3yaxbLga-CvLra-35" vertex="1">
          <mxGeometry y="222" width="140" height="26" as="geometry" />
        </mxCell>
        <mxCell id="_qbtR4W9iCl-oeb5Ib_U-2" value="+ Work()" style="text;strokeColor=none;fillColor=none;align=left;verticalAlign=top;spacingLeft=4;spacingRight=4;overflow=hidden;rotatable=0;points=[[0,0.5],[1,0.5]];portConstraint=eastwest;whiteSpace=wrap;html=1;" parent="KYygjc3yaxbLga-CvLra-35" vertex="1">
          <mxGeometry y="248" width="140" height="26" as="geometry" />
        </mxCell>
        <mxCell id="ZKbEycsPSZGJLrnQ0Gip-12" value="- NormalNum(num)" style="text;strokeColor=none;fillColor=none;align=left;verticalAlign=top;spacingLeft=4;spacingRight=4;overflow=hidden;rotatable=0;points=[[0,0.5],[1,0.5]];portConstraint=eastwest;whiteSpace=wrap;html=1;" vertex="1" parent="KYygjc3yaxbLga-CvLra-35">
          <mxGeometry y="274" width="140" height="26" as="geometry" />
        </mxCell>
        <mxCell id="ZKbEycsPSZGJLrnQ0Gip-14" value="+ Operator--()" style="text;strokeColor=none;fillColor=none;align=left;verticalAlign=top;spacingLeft=4;spacingRight=4;overflow=hidden;rotatable=0;points=[[0,0.5],[1,0.5]];portConstraint=eastwest;whiteSpace=wrap;html=1;" vertex="1" parent="KYygjc3yaxbLga-CvLra-35">
          <mxGeometry y="300" width="140" height="26" as="geometry" />
        </mxCell>
        <mxCell id="ZKbEycsPSZGJLrnQ0Gip-13" value="+ Operator++()" style="text;strokeColor=none;fillColor=none;align=left;verticalAlign=top;spacingLeft=4;spacingRight=4;overflow=hidden;rotatable=0;points=[[0,0.5],[1,0.5]];portConstraint=eastwest;whiteSpace=wrap;html=1;" vertex="1" parent="KYygjc3yaxbLga-CvLra-35">
          <mxGeometry y="326" width="140" height="26" as="geometry" />
        </mxCell>
        <mxCell id="ZKbEycsPSZGJLrnQ0Gip-19" value="+ SetProductCount()" style="text;strokeColor=none;fillColor=none;align=left;verticalAlign=top;spacingLeft=4;spacingRight=4;overflow=hidden;rotatable=0;points=[[0,0.5],[1,0.5]];portConstraint=eastwest;whiteSpace=wrap;html=1;" vertex="1" parent="KYygjc3yaxbLga-CvLra-35">
          <mxGeometry y="352" width="140" height="26" as="geometry" />
        </mxCell>
        <mxCell id="ZKbEycsPSZGJLrnQ0Gip-18" value="+ SetDischarge()" style="text;strokeColor=none;fillColor=none;align=left;verticalAlign=top;spacingLeft=4;spacingRight=4;overflow=hidden;rotatable=0;points=[[0,0.5],[1,0.5]];portConstraint=eastwest;whiteSpace=wrap;html=1;" vertex="1" parent="KYygjc3yaxbLga-CvLra-35">
          <mxGeometry y="378" width="140" height="26" as="geometry" />
        </mxCell>
        <mxCell id="ZKbEycsPSZGJLrnQ0Gip-23" value="+ GetDischarge()" style="text;strokeColor=none;fillColor=none;align=left;verticalAlign=top;spacingLeft=4;spacingRight=4;overflow=hidden;rotatable=0;points=[[0,0.5],[1,0.5]];portConstraint=eastwest;whiteSpace=wrap;html=1;" vertex="1" parent="KYygjc3yaxbLga-CvLra-35">
          <mxGeometry y="404" width="140" height="26" as="geometry" />
        </mxCell>
        <mxCell id="ZKbEycsPSZGJLrnQ0Gip-22" value="+ GetProductCount()" style="text;strokeColor=none;fillColor=none;align=left;verticalAlign=top;spacingLeft=4;spacingRight=4;overflow=hidden;rotatable=0;points=[[0,0.5],[1,0.5]];portConstraint=eastwest;whiteSpace=wrap;html=1;" vertex="1" parent="KYygjc3yaxbLga-CvLra-35">
          <mxGeometry y="430" width="140" height="26" as="geometry" />
        </mxCell>
        <mxCell id="KYygjc3yaxbLga-CvLra-41" value="IsCadr" style="endArrow=block;endSize=16;endFill=0;html=1;rounded=0;exitX=0.5;exitY=0;exitDx=0;exitDy=0;entryX=0;entryY=0.5;entryDx=0;entryDy=0;" parent="1" source="KYygjc3yaxbLga-CvLra-35" target="KYygjc3yaxbLga-CvLra-21" edge="1">
          <mxGeometry width="160" relative="1" as="geometry">
            <mxPoint x="140" y="312" as="sourcePoint" />
            <mxPoint x="-310" y="350" as="targetPoint" />
          </mxGeometry>
        </mxCell>
        <mxCell id="KYygjc3yaxbLga-CvLra-42" value="IsCadr" style="endArrow=block;endSize=16;endFill=0;html=1;rounded=0;exitX=0.5;exitY=0;exitDx=0;exitDy=0;entryX=1;entryY=0.5;entryDx=0;entryDy=0;" parent="1" source="KYygjc3yaxbLga-CvLra-28" target="KYygjc3yaxbLga-CvLra-21" edge="1">
          <mxGeometry width="160" relative="1" as="geometry">
            <mxPoint x="320" y="443" as="sourcePoint" />
            <mxPoint x="520" y="400" as="targetPoint" />
          </mxGeometry>
        </mxCell>
        <mxCell id="KYygjc3yaxbLga-CvLra-43" value="IsCadr" style="endArrow=block;endSize=16;endFill=0;html=1;rounded=0;exitX=0.5;exitY=0;exitDx=0;exitDy=0;entryX=1;entryY=0.5;entryDx=0;entryDy=0;" parent="1" source="KYygjc3yaxbLga-CvLra-22" target="KYygjc3yaxbLga-CvLra-17" edge="1">
          <mxGeometry width="160" relative="1" as="geometry">
            <mxPoint x="560" y="473" as="sourcePoint" />
            <mxPoint x="580" y="280" as="targetPoint" />
          </mxGeometry>
        </mxCell>
      </root>
    </mxGraphModel>
  </diagram>
</mxfile>
